<svg xmlns="http://www.w3.org/2000/svg" viewBox="0 0 2323.89235941569 2528" class="iconAbove">
  <g id="52b2aa1f-1009-4141-8405-2fc0a3d5cf36" fill="white" transform="matrix(5.655042595806296,0,0,5.655042595806296,1066.3476371971458,2467.847649721115)">
    <path d="M5.04 2.77L5.36 2.77L5.36 1.40L4.02 0L2.32 0L0.98 1.40L0.98 9.04L2.32 10.54L4.02 10.54L5.36 9.04L5.36 7.48L5.04 7.48L5.04 8.93L3.88 10.23L2.46 10.23L1.29 8.93L1.29 1.53L2.45 0.31L3.88 0.31L5.04 1.53ZM11.76 9.04L11.76 1.33L10.36-0.07L8.62-0.07L7.22 1.33L7.22 9.04L8.62 10.54L10.36 10.54ZM11.45 8.92L10.22 10.23L8.75 10.23L7.53 8.92L7.53 1.47L8.75 0.24L10.23 0.24L11.45 1.47ZM13.86 7.28L13.58 7.28L13.58 9.09L14.97 10.53L16.63 10.53L18.02 9.09L18.02 6.38L13.96 3.53L13.96 1.51L15.12 0.31L16.46 0.31L17.68 1.51L17.68 2.88L17.93 2.88L17.93 1.39L16.60-0.01L14.99-0.01L13.65 1.39L13.65 3.68L17.70 6.55L17.70 8.95L16.49 10.22L15.09 10.22L13.86 8.95ZM26.24 10.49L26.56 10.49L26.56 0.01L25.54 0.01L23.37 9.70L23.11 9.70L20.99 0.01L19.94 0.01L19.94 10.49L20.24 10.49L20.24 0.25L20.72 0.25L22.88 10.01L23.60 10.01L25.80 0.25L26.24 0.25ZM28.67 7.28L28.39 7.28L28.39 9.09L29.78 10.53L31.44 10.53L32.83 9.09L32.83 6.38L28.77 3.53L28.77 1.51L29.93 0.31L31.28 0.31L32.49 1.51L32.49 2.88L32.75 2.88L32.75 1.39L31.42-0.01L29.81-0.01L28.46 1.39L28.46 3.68L32.51 6.55L32.51 8.95L31.30 10.22L29.90 10.22L28.67 8.95Z"></path>
  </g>
  <defs>
    <linearGradient gradientTransform="rotate(25)" id="254e74f7-302a-4fd5-b217-7c46c5d520db" x1="0%" y1="0%" x2="100%" y2="0%">
      <stop offset="0%" style="stop-color: rgb(255, 255, 255); stop-opacity: 1;"></stop>
      <stop offset="100%" style="stop-color: rgb(240, 240, 255); stop-opacity: 1;"></stop>
    </linearGradient>
  </defs>
  <g id="e5c2e517-1155-4e93-a599-f2692d915449" transform="matrix(5.222230021158854,0,0,5.222230021158854,-161.8353103637694,-108.88972956058365)" stroke="none" fill="url(#254e74f7-302a-4fd5-b217-7c46c5d520db)">
    <path d="M266 281c-19.299 0-35-15.701-35-35s15.701-35 35-35 35 15.701 35 35-15.701 35-35 35zm0-60c-13.785 0-25 11.215-25 25s11.215 25 25 25 25-11.215 25-25-11.215-25-25-25z"></path>
    <path d="M266 321c-41.355 0-75-33.645-75-75s33.645-75 75-75 75 33.645 75 75-33.645 75-75 75zm0-140c-35.841 0-65 29.159-65 65s29.159 65 65 65 65-29.159 65-65-29.159-65-65-65zM369.117 143.407H162.883a5 5 0 010-10h206.234a5 5 0 110 10zM445.898 389.584c-.429 0-.861-.055-1.288-.169l-93.14-24.837a5 5 0 01-3.543-6.119 4.996 4.996 0 016.119-3.543l82.164 21.91-54.37-104.213a5 5 0 018.865-4.625l59.626 114.283a5 5 0 01-4.433 7.313zM86.102 389.584a5.001 5.001 0 01-4.433-7.313l59.626-114.283a4.997 4.997 0 016.746-2.12 5 5 0 012.12 6.745L95.789 376.826l82.165-21.91a5 5 0 012.576 9.662l-93.14 24.837c-.427.114-.86.169-1.288.169z"></path>
    <path d="M334.764 389.584H197.236a5 5 0 01-3.851-1.811c-35.773-43.187-55.474-97.905-55.474-154.076 0-88.316 48.16-169.581 125.685-212.082a4.999 4.999 0 014.807 0c77.525 42.5 125.686 123.765 125.686 212.082 0 56.17-19.701 110.889-55.475 154.076a4.999 4.999 0 01-3.85 1.811zm-135.161-10h132.795c33.351-41.111 51.691-92.823 51.691-145.887 0-83.749-45.173-160.881-118.089-201.977-72.916 41.095-118.088 118.228-118.088 201.977 0 53.065 18.34 104.777 51.691 145.887z"></path>
    <path d="M426 491H66c-19.299 0-35-15.701-35-35s15.701-35 35-35c8.196 0 15.952 2.813 22.139 7.887C97.808 411.736 115.886 401 136 401s38.192 10.736 47.861 27.887C190.048 423.813 197.804 421 206 421c1.679 0 3.348.12 5 .36V346a5 5 0 1110 0v81.726a5.003 5.003 0 01-6.671 4.713A24.82 24.82 0 00206 431c-7.702 0-14.861 3.479-19.642 9.546a5 5 0 01-8.57-1.238C170.912 422.111 154.509 411 136 411s-34.912 11.111-41.788 28.308a5 5 0 01-3.927 3.092 4.986 4.986 0 01-4.643-1.854C80.861 434.479 73.702 431 66 431c-13.785 0-25 11.215-25 25s11.215 25 25 25h360c19.299 0 35-15.701 35-35s-15.701-35-35-35c-18.545 0-33.891 14.49-34.938 32.988a5 5 0 01-8.339 3.433A24.942 24.942 0 00366 441a24.942 24.942 0 00-16.744 6.438 5 5 0 01-8.337-3.338C339.947 431.147 329.002 421 316 421a5 5 0 01-5-5v-70c0-2.762 2.238-5 5-5s5 2.238 5 5v65.361c13.214 1.922 24.216 11.34 28.294 23.88A34.949 34.949 0 01366 431c5.751 0 11.35 1.407 16.347 4.049C387.253 415.403 405.038 401 426 401c24.813 0 45 20.187 45 45s-20.187 45-45 45zM76 221c-19.299 0-35-15.701-35-35s15.701-35 35-35 35 15.701 35 35-15.701 35-35 35zm0-60c-13.785 0-25 11.215-25 25s11.215 25 25 25 25-11.215 25-25-11.215-25-25-25zM431 121c-22.056 0-40-17.944-40-40s17.944-40 40-40 40 17.944 40 40-17.944 40-40 40zm0-70c-16.542 0-30 13.458-30 30s13.458 30 30 30 30-13.458 30-30-13.458-30-30-30z"></path>
    <circle cx="466" cy="166" r="10"></circle>
    <circle cx="436" cy="256" r="10"></circle>
    <circle cx="106" cy="66" r="10"></circle>
    <circle cx="96" cy="256" r="10"></circle>
    <circle cx="66" cy="326" r="10"></circle>
  </g>
</svg>
