<svg data-v-423bf9ae="" xmlns="http://www.w3.org/2000/svg" viewBox="0 0 313.0347382035658 184" class="iconAboveSlogan"><!----><!----><!----><g data-v-423bf9ae="" id="daf88724-39b6-4956-8f88-d7a5f9dceb89" fill="black" transform="matrix(6.718925459934302,0,0,6.718925459934302,-3.5610318019234057,69.87569876993066)"><path d="M7.10 13.41Q6.48 13.64 5.90 13.75Q5.32 13.86 4.56 13.86L4.56 13.86Q2.52 13.86 1.53 12.61Q0.53 11.37 0.53 9.38L0.53 9.38Q0.53 7.39 1.51 6.16Q2.49 4.93 4.56 4.93L4.56 4.93Q5.35 4.93 5.89 5.03Q6.43 5.14 7.10 5.35L7.10 5.35L6.96 7.24L6.40 7.24L6.05 5.88Q5.40 5.71 4.80 5.71L4.80 5.71Q3.25 5.71 2.63 6.73Q2.02 7.74 2.02 9.38L2.02 9.38Q2.02 10.93 2.65 12.01Q3.29 13.08 4.75 13.08L4.75 13.08Q5.40 13.08 6.05 12.87L6.05 12.87L6.40 11.69L6.99 11.69L7.10 13.41ZM11.54 6.71Q13.24 6.71 14.05 7.70Q14.85 8.69 14.85 10.32L14.85 10.32Q14.85 11.89 14.04 12.87Q13.23 13.86 11.54 13.86L11.54 13.86Q9.86 13.86 9.04 12.87Q8.22 11.89 8.22 10.32L8.22 10.32Q8.22 8.71 9.03 7.71Q9.84 6.71 11.54 6.71L11.54 6.71ZM13.34 10.28Q13.34 8.93 12.94 8.20Q12.53 7.46 11.49 7.46L11.49 7.46Q10.51 7.46 10.12 8.20Q9.73 8.95 9.73 10.28L9.73 10.28Q9.73 11.62 10.14 12.36Q10.54 13.10 11.58 13.10L11.58 13.10Q12.59 13.10 12.96 12.37Q13.34 11.63 13.34 10.28L13.34 10.28ZM18.52 7.49Q17.89 7.49 17.54 7.74Q17.19 7.98 17.19 8.41L17.19 8.41Q17.19 8.82 17.39 9.04Q17.58 9.25 18.09 9.44L18.09 9.44L19.28 9.84Q20.13 10.14 20.46 10.56Q20.79 10.98 20.79 11.72L20.79 11.72Q20.79 12.71 20.10 13.29Q19.40 13.86 18.10 13.86L18.10 13.86Q17.60 13.86 17.00 13.76Q16.41 13.66 15.95 13.50L15.95 13.50L16.14 11.77L16.69 11.77L16.98 12.94Q17.54 13.10 18.13 13.10L18.13 13.10Q19.57 13.10 19.57 11.97L19.57 11.97Q19.57 11.63 19.35 11.42Q19.12 11.20 18.52 10.99L18.52 10.99L17.44 10.63Q16.70 10.35 16.37 9.91Q16.03 9.48 16.03 8.76L16.03 8.76Q16.03 7.78 16.66 7.25Q17.29 6.71 18.55 6.71L18.55 6.71Q19.54 6.71 20.52 7.14L20.52 7.14L20.31 8.72L19.78 8.72L19.49 7.70Q19.31 7.62 19.03 7.55Q18.76 7.49 18.52 7.49L18.52 7.49ZM21.74 13.72L21.74 13.26L22.95 12.91L22.95 7.81L21.74 7.67L21.74 7.22L23.88 6.71L24.33 6.71L24.33 7.27Q24.81 7.06 25.47 6.88Q26.12 6.71 26.70 6.71L26.70 6.71Q27.16 6.71 27.56 6.85Q27.96 7.00 28.18 7.29L28.18 7.29Q29.72 6.71 30.80 6.71L30.80 6.71Q31.64 6.71 32.10 7.08Q32.56 7.45 32.56 8.22L32.56 8.22L32.56 12.91L33.80 13.26L33.80 13.72L30.20 13.72L30.20 13.26L31.18 12.91L31.18 8.53Q31.18 8.18 31.07 7.99Q30.97 7.80 30.70 7.72Q30.44 7.64 29.92 7.64L29.92 7.64Q29.06 7.64 28.41 7.85L28.41 7.85Q28.45 7.99 28.45 8.25L28.45 8.25L28.45 12.91L29.43 13.26L29.43 13.72L26.08 13.72L26.08 13.26L27.06 12.91L27.06 8.53Q27.06 8.16 26.96 7.97Q26.85 7.78 26.58 7.71Q26.31 7.64 25.76 7.64L25.76 7.64Q25.40 7.64 25.00 7.70Q24.61 7.76 24.33 7.85L24.33 7.85L24.33 12.91L25.30 13.26L25.30 13.72L21.74 13.72ZM37.87 6.71Q39.58 6.71 40.38 7.70Q41.19 8.69 41.19 10.32L41.19 10.32Q41.19 11.89 40.38 12.87Q39.56 13.86 37.87 13.86L37.87 13.86Q36.19 13.86 35.37 12.87Q34.55 11.89 34.55 10.32L34.55 10.32Q34.55 8.71 35.36 7.71Q36.18 6.71 37.87 6.71L37.87 6.71ZM39.68 10.28Q39.68 8.93 39.27 8.20Q38.86 7.46 37.83 7.46L37.83 7.46Q36.85 7.46 36.46 8.20Q36.06 8.95 36.06 10.28L36.06 10.28Q36.06 11.62 36.47 12.36Q36.88 13.10 37.91 13.10L37.91 13.10Q38.92 13.10 39.30 12.37Q39.68 11.63 39.68 10.28L39.68 10.28ZM44.86 7.49Q44.23 7.49 43.88 7.74Q43.53 7.98 43.53 8.41L43.53 8.41Q43.53 8.82 43.72 9.04Q43.92 9.25 44.42 9.44L44.42 9.44L45.61 9.84Q46.47 10.14 46.80 10.56Q47.12 10.98 47.12 11.72L47.12 11.72Q47.12 12.71 46.43 13.29Q45.74 13.86 44.44 13.86L44.44 13.86Q43.93 13.86 43.34 13.76Q42.74 13.66 42.28 13.50L42.28 13.50L42.48 11.77L43.02 11.77L43.32 12.94Q43.88 13.10 44.46 13.10L44.46 13.10Q45.91 13.10 45.91 11.97L45.91 11.97Q45.91 11.63 45.68 11.42Q45.46 11.20 44.86 10.99L44.86 10.99L43.78 10.63Q43.04 10.35 42.70 9.91Q42.36 9.48 42.36 8.76L42.36 8.76Q42.36 7.78 42.99 7.25Q43.62 6.71 44.88 6.71L44.88 6.71Q45.88 6.71 46.86 7.14L46.86 7.14L46.65 8.72L46.12 8.72L45.82 7.70Q45.64 7.62 45.37 7.55Q45.09 7.49 44.86 7.49L44.86 7.49Z"></path></g><!----><g data-v-423bf9ae="" id="6295e57e-5466-4c6e-b1a4-01516a93f402" transform="matrix(1.08773002672926,0,0,1.08773002672926,-54.63857603119922,-386.20228732673155)" stroke="none" fill="black"><path d="M221.4 397.2c-.2.2-.4.5-.6.8-.5.6-1 1.2-1.6 1.8l-.2.2c-3.7 4-8.1 7.8-13.1 11.3-4.9 3.6-9.9 6.6-14.9 8.8-.1 0-.2.1-.3.1-.7.3-1.5.6-2.2.9-.3.1-.6.2-.9.4-.4.2-.8.3-1.2.5 6 2.3 12.6 2.4 18.8.3h.1c4.5-1.6 8.4-4.4 11.3-8.1v-.1c4-5.1 5.9-11.4 5.6-17.9-.2.4-.5.7-.8 1zM210.3 373.3c.3.2.6.3.9.5h.8c.1 0 .3 0 .4.1.1 0 .2 0 .4.1.1 0 .2.1.4.1.1 0 .2.1.3.1.1 0 .2.1.3.1.1 0 .2.1.3.1s.2.1.3.1.2.1.3.1c.1.1.2.1.3.2.1.1.2.1.2.2l.2.2.2.2c.1.1.2.3.4.4.5.7.7 1.6.6 2.7v.2s-.2.9-.4 1.6c-.2-.2-.4-.5-.6-.7-.2-.2-.3-.4-.5-.6l-.8-.8-.5-.5c-.3-.3-.6-.6-1-.9-.2-.1-.3-.3-.4-.4-.5-.4-1-.8-1.5-1.1l-2.4-1.5c-.1-.1-.2-.1-.3-.2-19.6-10.7-42.8 6.1-38.8 28 0 .1 0 .2.1.3.2.9.4 1.9.7 2.8l.6 1.8c.1.2.2.4.2.6.2.4.3.8.5 1.2l.3.6c.2.3.3.7.5 1 .1.2.3.5.4.7.2.3.3.5.5.8-.7-.1-1.6-.1-1.6-.1h-.2c-1-.3-1.8-.8-2.4-1.4-.1-.2-.2-.3-.3-.5 0-.1-.1-.1-.1-.2-.1-.1-.1-.2-.1-.3 0-.1-.1-.2-.1-.3 0-.1-.1-.2-.1-.3v-.3-.3-.3-.3-.3-.4c0-.1 0-.2.1-.4 0-.1 0-.2.1-.4 0-.1.1-.2.1-.4 0-.1.1-.2.1-.3-.1-.3-.1-.6-.2-1-4.6 6.6-5.9 11.9-3.8 14.7 2.4 3.1 8.7 3 17.3-.3.8-.3 1.7-.7 2.6-1 5.7-2.5 11.9-6.1 17.9-10.5 6-4.3 11.4-9 15.6-13.6l1.8-2.1c5.9-7.1 8-13.1 5.8-16.3-2.2-3.4-7.7-3.8-15.4-1.5zM241.2 357a4.6 4.6 0 00-5.2-.9c-.4.2-.8.5-1.1.8-1.8 1.7-1.8 4.6-.1 6.3a4.6 4.6 0 005.2.9c.4-.2.8-.5 1.1-.8 1.8-1.7 1.8-4.5.1-6.3zM218.3 433.9c-.2.1-.4.2-.6.4-.4.4-.7 1-.7 1.7 0 .6.2 1.2.7 1.7.7.7 1.8.9 2.7.5.2-.1.4-.2.6-.4.9-.9.9-2.4 0-3.3-.7-.9-1.8-1.1-2.7-.6zM149.3 373.2l-.9.6c-1.3 1.3-1.4 3.5 0 4.8 1 1 2.6 1.3 4 .7l.9-.6c1.3-1.3 1.3-3.5 0-4.8-1-1.1-2.6-1.4-4-.7z"></path></g><!----><g data-v-423bf9ae="" id="b6429f69-e390-4797-835e-5633f0f58120" fill="black" transform="matrix(0.7662653560105883,0,0,0.7662653560105883,39.66105745085105,201.93288970443413)"><path d="M4.48 2.45L0.21 12.60L0.70 12.60L1.97 9.52L6.99 9.52L8.26 12.60L8.75 12.60ZM4.48 3.50L6.79 9.07L2.17 9.07ZM17.22 2.80L17.22 12.60L21.70 12.60L21.70 12.19L17.64 12.19L17.64 2.80ZM29.54 7.70C29.54 6.38 29.95 5.29 30.76 4.41C31.57 3.53 32.60 3.09 33.84 3.09C35.08 3.09 36.11 3.53 36.92 4.41C37.73 5.29 38.14 6.38 38.14 7.70C38.14 9.02 37.73 10.11 36.92 10.99C36.11 11.87 35.08 12.31 33.84 12.31C32.60 12.31 31.57 11.87 30.76 10.99C29.95 10.11 29.54 9.02 29.54 7.70ZM29.12 7.70C29.12 9.16 29.57 10.36 30.46 11.30C31.35 12.24 32.48 12.71 33.84 12.71C35.20 12.71 36.33 12.24 37.22 11.30C38.11 10.36 38.56 9.16 38.56 7.70C38.56 6.24 38.11 5.04 37.22 4.10C36.33 3.16 35.20 2.69 33.84 2.69C32.48 2.69 31.35 3.16 30.46 4.10C29.57 5.04 29.12 6.24 29.12 7.70ZM54.45 2.80L54.45 11.79L46.96 2.45L46.96 12.60L47.38 12.60L47.38 3.61L54.87 12.95L54.87 2.80ZM72.51 7.63L68.45 7.63L68.45 8.11L72.03 8.11C71.95 9.32 71.55 10.32 70.84 11.09C70.13 11.87 69.19 12.26 68.03 12.26C66.74 12.26 65.70 11.82 64.90 10.94C64.11 10.06 63.71 8.98 63.71 7.70C63.71 6.40 64.12 5.32 64.92 4.45C65.73 3.57 66.77 3.14 68.03 3.14C68.77 3.14 69.47 3.31 70.11 3.65C70.74 4.00 71.26 4.47 71.64 5.05L72.03 4.75C71.59 4.11 71.03 3.61 70.35 3.24C69.67 2.87 68.89 2.69 68.03 2.69C66.67 2.69 65.54 3.17 64.63 4.13C63.72 5.09 63.27 6.28 63.27 7.70C63.27 9.12 63.72 10.31 64.63 11.27C65.54 12.23 66.67 12.71 68.03 12.71C69.40 12.71 70.49 12.22 71.30 11.23C72.10 10.25 72.51 9.05 72.51 7.63ZM95.44 11.69L92.20 2.80L91.76 2.80L95.47 12.95L98.41 3.79L101.35 12.95L105.06 2.80L104.61 2.80L101.37 11.69L98.41 2.45ZM113.53 2.80L113.53 12.60L113.95 12.60L113.95 2.80ZM122.42 3.21L124.94 3.21L124.94 12.60L125.36 12.60L125.36 3.21L127.88 3.21L127.88 2.80L122.42 2.80ZM136.42 2.80L136.42 12.60L136.84 12.60L136.84 7.62L143.07 7.62L143.07 12.60L143.49 12.60L143.49 2.80L143.07 2.80L143.07 7.18L136.84 7.18L136.84 2.80ZM164.21 2.80L164.21 12.60L164.63 12.60L164.63 8.48L166.31 8.48C167.27 8.48 168.03 8.23 168.61 7.73C169.18 7.22 169.47 6.53 169.47 5.64C169.47 4.76 169.18 4.06 168.61 3.56C168.03 3.05 167.27 2.80 166.31 2.80ZM164.63 3.21L166.31 3.21C167.16 3.21 167.83 3.41 168.31 3.83C168.80 4.24 169.04 4.85 169.04 5.64C169.04 6.44 168.80 7.04 168.31 7.45C167.83 7.87 167.16 8.08 166.31 8.08L164.63 8.08ZM178.85 2.80ZM178.43 2.80L178.43 12.60L178.85 12.60L178.85 8.48L180.40 8.48L183.53 12.60L184.07 12.60L180.88 8.47C181.78 8.41 182.49 8.15 183.03 7.67C183.57 7.20 183.83 6.52 183.83 5.64C183.83 4.71 183.53 4.00 182.92 3.52C182.32 3.04 181.52 2.80 180.53 2.80ZM178.85 3.21L180.53 3.21C181.40 3.21 182.09 3.41 182.62 3.83C183.14 4.24 183.40 4.85 183.40 5.64C183.40 6.44 183.14 7.04 182.62 7.45C182.09 7.87 181.40 8.08 180.53 8.08L178.85 8.08ZM192.33 7.70C192.33 6.38 192.74 5.29 193.55 4.41C194.36 3.53 195.39 3.09 196.63 3.09C197.87 3.09 198.90 3.53 199.71 4.41C200.52 5.29 200.93 6.38 200.93 7.70C200.93 9.02 200.52 10.11 199.71 10.99C198.90 11.87 197.87 12.31 196.63 12.31C195.39 12.31 194.36 11.87 193.55 10.99C192.74 10.11 192.33 9.02 192.33 7.70ZM191.91 7.70C191.91 9.16 192.36 10.36 193.25 11.30C194.14 12.24 195.27 12.71 196.63 12.71C197.99 12.71 199.12 12.24 200.01 11.30C200.90 10.36 201.35 9.16 201.35 7.70C201.35 6.24 200.90 5.04 200.01 4.10C199.12 3.16 197.99 2.69 196.63 2.69C195.27 2.69 194.14 3.16 193.25 4.10C192.36 5.04 191.91 6.24 191.91 7.70ZM210.31 2.80L210.31 12.60L212.41 12.60C214.54 12.60 215.60 11.69 215.60 9.87C215.60 9.19 215.36 8.62 214.89 8.17C214.42 7.72 213.85 7.41 213.19 7.25C214.42 7.02 215.04 6.30 215.04 5.11C215.04 4.40 214.79 3.84 214.28 3.42C213.77 3.01 213.05 2.80 212.13 2.80ZM210.73 7.08L210.73 3.21L212.13 3.21C212.90 3.21 213.51 3.37 213.96 3.71C214.40 4.05 214.62 4.51 214.62 5.11C214.62 5.60 214.48 5.99 214.21 6.31C213.94 6.62 213.63 6.83 213.28 6.93C212.93 7.03 212.55 7.08 212.13 7.08ZM210.73 7.48L212.41 7.48C212.81 7.48 213.21 7.56 213.61 7.72C214.01 7.88 214.37 8.16 214.68 8.54C214.98 8.92 215.14 9.37 215.14 9.87C215.14 11.42 214.23 12.19 212.41 12.19L210.73 12.19ZM227.92 2.45L223.65 12.60L224.14 12.60L225.41 9.52L230.43 9.52L231.70 12.60L232.19 12.60ZM227.92 3.50L230.23 9.07L225.61 9.07ZM240.66 2.80L240.66 12.60L242.76 12.60C244.89 12.60 245.95 11.69 245.95 9.87C245.95 9.19 245.72 8.62 245.25 8.17C244.77 7.72 244.21 7.41 243.54 7.25C244.78 7.02 245.39 6.30 245.39 5.11C245.39 4.40 245.14 3.84 244.63 3.42C244.12 3.01 243.40 2.80 242.48 2.80ZM241.08 7.08L241.08 3.21L242.48 3.21C243.25 3.21 243.86 3.37 244.31 3.71C244.75 4.05 244.97 4.51 244.97 5.11C244.97 5.60 244.84 5.99 244.57 6.31C244.30 6.62 243.99 6.83 243.64 6.93C243.28 7.03 242.90 7.08 242.48 7.08ZM241.08 7.48L242.76 7.48C243.16 7.48 243.56 7.56 243.96 7.72C244.37 7.88 244.72 8.16 245.03 8.54C245.34 8.92 245.49 9.37 245.49 9.87C245.49 11.42 244.58 12.19 242.76 12.19L241.08 12.19ZM254.98 2.80L254.98 12.60L255.40 12.60L255.40 2.80ZM264.85 2.80L264.85 12.60L269.33 12.60L269.33 12.19L265.27 12.19L265.27 2.80ZM277.80 2.80L277.80 12.60L278.22 12.60L278.22 2.80ZM286.69 3.21L289.21 3.21L289.21 12.60L289.63 12.60L289.63 3.21L292.15 3.21L292.15 2.80L286.69 2.80ZM306.07 2.80L303.06 8.16L300.17 2.80L299.64 2.80L302.83 8.62L302.83 12.60L303.28 12.60L303.28 8.61L306.60 2.80Z"></path></g></svg>